<svg xmlns="http://www.w3.org/2000/svg" xmlns:xlink="http://www.w3.org/1999/xlink" viewBox="0 0 1207.91 404.2"><defs><linearGradient id="linear-gradient" x1="1.25" y1="402.27" x2="1.32" y2="402.27" gradientTransform="matrix(0, -1172.72, -1203.75, 0, 484600.26, 1696.91)" gradientUnits="userSpaceOnUse"><stop offset="0" stop-color="#b44b17"/><stop offset="0.52" stop-color="#ef6521"/><stop offset="1" stop-color="#b44b17"/></linearGradient><linearGradient id="linear-gradient-2" x1="1.25" y1="400.52" x2="1.32" y2="400.52" gradientTransform="matrix(0, -1172.72, -1895.19, 0, 759280.29, 1696.91)" gradientUnits="userSpaceOnUse"><stop offset="0" stop-color="#ef6521"/><stop offset="0.52" stop-color="#ef6521"/><stop offset="1" stop-color="#b44b17"/></linearGradient><linearGradient id="linear-gradient-3" x1="1.25" y1="401.48" x2="1.32" y2="401.48" gradientTransform="matrix(0, -1172.72, -1203.75, 0, 483565.1, 1696.91)" xlink:href="#linear-gradient"/></defs><title>banner</title><g id="Layer_3" data-name="Layer 3"><path id="Layer" d="M6.27,400H379.82Q465.38,200,550.93,0H193.47Z" transform="translate(4.74)" fill="#f98613"/><path d="M188.39,0H0L-.51,404.2Q93.95,202.11,188.39,0Z" transform="translate(4.74)" fill="#f98613"/><path d="M384.48,400l68.88-164.36,61,164.36Z" transform="translate(4.74)" fill="#f98613"/><path d="M456.6,233.09,557.28,0H1200V400H517.89Z" transform="translate(4.74)" fill="#f98613"/></g><g id="Layer_4" data-name="Layer 4"><path id="Layer-2" data-name="Layer" d="M191.66,245.32V247h-9.23v5.6h7v1.72h-7v8.26h-2.12V245.32Zm22.86,0-4.21,17.29h-2.83l-2.18-9.81q-.35-1.53-1.12-5.65h-.42c-.37,2.26-.73,4.12-1.08,5.6l-2.31,9.86h-2.82l-4-17.29h2.2l2.06,9.67c.31,1.43.64,3.31,1,5.67h.42c.63-3.25,1-5.11,1.1-5.58l2.24-9.76h2.95l2.2,9.9c.26,1.21.62,3,1.08,5.44h.42c.11-.57.29-1.56.54-3,.19-1,.36-1.85.51-2.53l2.16-9.83Zm21.87,0V247h-9.26v5.54h7v1.71h-7v6.62h9.42v1.71H225V245.32Zm14.81,3.8-2.13.61a3.76,3.76,0,0,0-3.83-3.06,4,4,0,0,0-2.78.87,2.44,2.44,0,0,0-.86,1.93,2.62,2.62,0,0,0,.94,2.18,7.86,7.86,0,0,0,2.82,1.13l.79.22a8.79,8.79,0,0,1,4.48,2.12,4.28,4.28,0,0,1,.92,2.89,4.35,4.35,0,0,1-1.82,3.73,7.34,7.34,0,0,1-4.41,1.19,7.26,7.26,0,0,1-4.41-1.24,5.82,5.82,0,0,1-2.12-3.09l2.12-.71a4.34,4.34,0,0,0,1.76,2.65,4.68,4.68,0,0,0,2.6.73,4.73,4.73,0,0,0,3.24-1,3,3,0,0,0,0-4.27,8.22,8.22,0,0,0-3.15-1.3l-.71-.2a8.43,8.43,0,0,1-4.2-2.08,4.24,4.24,0,0,1-.94-2.91,4.07,4.07,0,0,1,1.66-3.33,6.4,6.4,0,0,1,4.05-1.21q4.63,0,6,4.11Zm16-3.8v1.73H261.5v15.56h-2.17V247.05h-5.61v-1.73Zm9.42,0,5.82,17.29h-2.23l-1.75-5.49H272l-1.82,5.49h-2.09l5.81-17.29Zm1.37,10.2-1.34-4.2c-.36-1.08-.78-2.56-1.28-4.43H275c-.41,1.62-.82,3.09-1.25,4.41l-1.33,4.22Zm25.21-10.2v17.29h-2V252.45l.05-5.47h-.43q-.9,3.26-1.59,5.33l-3.4,10.3H293l-3.33-10.28c-.25-.74-.54-1.69-.89-2.83q-.57-1.94-.75-2.52h-.42c0,.25,0,.52,0,.8l.06,4.7v10.13h-1.92V245.32h3.58l3.24,10.18c.16.51.45,1.44.88,2.79.31,1,.57,1.87.77,2.49h.42c.09-.26.65-2,1.69-5.23l3.29-10.23Zm5.15,0h6c4.16,0,6.25,1.6,6.25,4.8a4.34,4.34,0,0,1-1.87,3.78,7.89,7.89,0,0,1-4.56,1.15h-3.73v7.56h-2.11Zm2.11,1.63v6.51h3.63c2.88,0,4.33-1.11,4.33-3.32S317,247,314.19,247Zm20.17-1.63,5.81,17.28h-2.23l-1.75-5.48H326l-1.82,5.48h-2.08l5.81-17.28Zm1.36,10.2-1.34-4.2c-.35-1.08-.78-2.56-1.28-4.43H329c-.41,1.62-.82,3.09-1.25,4.4l-1.33,4.23Zm7.82-10.2h6.09q6.21,0,6.21,4.52a4.07,4.07,0,0,1-1.1,2.91,5.07,5.07,0,0,1-2.74,1.45l4.33,8.4H350.2l-4-8.06h-4.36v8.06h-2.09Zm2.09,1.64v6h3.72q4.31,0,4.3-3.08a2.52,2.52,0,0,0-1.07-2.26,5.77,5.77,0,0,0-3.07-.65Zm16.51-1.64v17.29h-2.14V245.32Zm11.9,0,5.81,17.29h-2.23l-1.75-5.49h-6.44l-1.82,5.49h-2.09l5.82-17.29Zm1.36,10.21-1.34-4.2c-.35-1.08-.78-2.56-1.28-4.44h-.37c-.41,1.63-.82,3.1-1.24,4.41l-1.33,4.23Z" transform="translate(4.74)" fill="#fff" fill-rule="evenodd"/><path id="Layer-3" data-name="Layer" d="M255.15,157.5l20.69,45-92.89.11L162.1,157.26Z" transform="translate(4.74)" fill="#ef6521"/><path id="Layer-4" data-name="Layer" d="M175.74,191.64,162.1,162.45l93.42-.72,14,29.66L226.57,198l-2.44-6.51Z" transform="translate(4.74)" fill="#ef6521"/><path id="Layer-5" data-name="Layer" d="M330.08,146.5H278.72l38.6,84.19h51.76Z" transform="translate(4.74)" fill="#ef6521"/><path id="Layer-6" data-name="Layer" d="M343.74,175.35l25.34,55.34-16-7.28-35.74,7.28Z" transform="translate(4.74)" fill="#ef6521"/><path id="Layer-7" data-name="Layer" d="M317.32,230.69h51.76l38.6-84.19H356.32Z" transform="translate(4.74)" fill="url(#linear-gradient)"/><path id="Layer-8" data-name="Layer" d="M239.41,230.69h51.76l-18.06-39h.16l-20.68-45h-.31l-.11-.25H200.81l.05.12-52-.12,20.84,45.31,51.81-.05Z" transform="translate(4.74)" fill="url(#linear-gradient-2)"/><path id="Layer-9" data-name="Layer" d="M266.05,175.35l25.32,55.34-16-7.28-35.73,7.28Z" transform="translate(4.74)" fill="#ef6521"/><path id="Layer-10" data-name="Layer" d="M239.62,230.69h51.75L330,146.5H278.62Z" transform="translate(4.74)" fill="url(#linear-gradient-3)"/></g><g id="Layer_5" data-name="Layer 5"><path d="M682.76,144.32c-1.52,5.79-5.83,10.1-13.57,10.1-10.19,0-15.33-7.74-15.33-17.38,0-9.26,5.15-17.63,15.51-17.63,8,0,12.4,4.58,13.4,10.28h-4.52c-1.22-3.71-3.68-6.51-9.07-6.51-7.52,0-10.59,6.83-10.59,13.73,0,6.69,2.92,13.74,10.79,13.74,5.25,0,7.56-3,8.84-6.33Z" transform="translate(4.74)" fill="#fff"/><path d="M710,141.52c0,7.15-4.1,13.06-11.69,13.06-7.12,0-11.43-5.51-11.43-13s4.22-13,11.71-13C705.49,128.56,710,133.72,710,141.52Zm-18.7,0c0,5.44,2.72,9.42,7.19,9.42s7.1-3.77,7.1-9.41-2.54-9.44-7.2-9.44S691.3,135.89,691.3,141.57Z" transform="translate(4.74)" fill="#fff"/><path d="M715.62,135.4c0-2.15,0-4.33,0-6.26h4.17c.12.74.18,3.35.17,4.09,1-2.14,3-4.67,7.82-4.67,4.65,0,8.3,2.84,8.3,9.45v16h-4.29V138.56c0-3.76-1.47-6.29-5.26-6.29-4.69,0-6.57,3.57-6.57,8.56V154h-4.29Z" transform="translate(4.74)" fill="#fff"/><path d="M744.09,154V132.64h-4v-3.5h4v-3c0-4.57,1.75-8.64,7.24-8.64a11.42,11.42,0,0,1,2.75.32v3.64a10.26,10.26,0,0,0-2.18-.23c-2.56,0-3.52,1.54-3.52,5.18v2.7h5v3.5h-5V154Z" transform="translate(4.74)" fill="#fff"/><path d="M759.58,142.35c0,5.05,2.57,8.64,6.79,8.64,3.93,0,5.2-2,6-3.84h4.32c-1,3.18-3.64,7.43-10.45,7.43-7.81,0-11-6.35-11-12.75,0-7.39,3.72-13.27,11.27-13.27,8,0,10.64,6.42,10.64,11.72a19.68,19.68,0,0,1-.07,2.07Zm13.22-3c0-4.09-2.11-7.37-6.35-7.37s-6.29,3-6.73,7.37Z" transform="translate(4.74)" fill="#fff"/><path d="M802.54,146.39c-1.06,4.27-3.95,8.19-10.27,8.19-6.84,0-11.08-4.92-11.08-12.88,0-7,4-13.14,11.39-13.14,7.16,0,9.64,5.1,10,8.3h-4.25c-.62-2.53-2.2-4.72-5.79-4.72-4.4,0-6.89,3.77-6.89,9.41S788,151,792.34,151c3.11,0,4.91-1.66,5.93-4.62Z" transform="translate(4.74)" fill="#fff"/><path d="M827.57,146.39c-1.05,4.27-3.94,8.19-10.26,8.19-6.84,0-11.08-4.92-11.08-12.88,0-7,4-13.14,11.39-13.14,7.16,0,9.63,5.1,10,8.3h-4.25c-.61-2.53-2.19-4.72-5.79-4.72-4.39,0-6.88,3.77-6.88,9.41s2.41,9.46,6.73,9.46c3.1,0,4.91-1.66,5.93-4.62Zm-7.74,7.6-2,2.52c1.76.28,4.75,1.26,4.75,4.56,0,3.9-3.48,4.78-6,4.78a9.3,9.3,0,0,1-3.56-.58v-2.94a11.46,11.46,0,0,0,3.2.53c1.81,0,2.61-.57,2.61-1.7,0-1.81-2.48-2.2-5.06-2.23v-1.35l3.11-4.08Z" transform="translate(4.74)" fill="#fff"/><path d="M851.41,148.57a39.82,39.82,0,0,0,.34,5.42h-4.1a13.75,13.75,0,0,1-.41-3.25c-.86,1.65-2.85,3.84-7.67,3.84-5.85,0-8.36-3.82-8.36-7.6,0-5.54,4.36-8.08,11.74-8.08h4.24v-2.12c0-2.18-.7-4.86-5.35-4.86-4.15,0-4.85,2.06-5.3,4h-4.15c.33-3.43,2.44-7.38,9.59-7.36,6.07,0,9.43,2.49,9.43,8.14Zm-16.79-24.23V123.2c0-3.45,1.6-4.7,4-4.7,2.73,0,5.11,2.43,6.85,2.43.92,0,1.39-.47,1.39-2.06v-.51h3v1c0,3.73-1.62,5-4.05,5C843,124.4,841,122,839,122c-.81,0-1.28.45-1.28,1.61v.78Zm12.6,17.54h-4c-5,0-7.6,1.36-7.6,4.87,0,2.58,1.77,4.46,4.83,4.46,6,0,6.79-4,6.79-8.54Z" transform="translate(4.74)" fill="#fff"/><path d="M880.13,141.52c0,7.15-4.1,13.06-11.7,13.06-7.12,0-11.42-5.51-11.42-13s4.22-13,11.7-13C875.61,128.56,880.13,133.72,880.13,141.52Zm-18.7,0c0,5.44,2.72,9.42,7.18,9.42s7.1-3.77,7.1-9.41-2.54-9.44-7.2-9.44S861.43,135.89,861.43,141.57Z" transform="translate(4.74)" fill="#fff"/><path d="M900.69,142.35c0,5.05,2.58,8.64,6.79,8.64,3.93,0,5.21-2,6-3.84h4.32c-1,3.18-3.64,7.43-10.45,7.43-7.81,0-11-6.35-11-12.75,0-7.39,3.73-13.27,11.28-13.27,8,0,10.64,6.42,10.64,11.72a19.68,19.68,0,0,1-.07,2.07Zm13.23-3c0-4.09-2.11-7.37-6.35-7.37s-6.3,3-6.73,7.37Z" transform="translate(4.74)" fill="#fff"/><path d="M938.52,142.35c0,5.05,2.57,8.64,6.79,8.64,3.93,0,5.2-2,6-3.84h4.32c-1,3.18-3.64,7.43-10.45,7.43-7.81,0-11-6.35-11-12.75,0-7.39,3.72-13.27,11.28-13.27,8,0,10.64,6.42,10.64,11.72a19.68,19.68,0,0,1-.07,2.07Zm13.22-3c0-4.09-2.1-7.37-6.35-7.37s-6.29,3-6.72,7.37Z" transform="translate(4.74)" fill="#fff"/><path d="M964.05,146.88c.71,2.72,2.72,4.31,6.09,4.31,3.65,0,5.08-1.57,5.08-3.83s-1.14-3.4-5.88-4.55c-7.1-1.73-8.58-3.9-8.58-7.27s2.58-7,9-7,9,3.71,9.35,7.17h-4.15c-.35-1.61-1.57-3.85-5.39-3.85-3.48,0-4.51,1.68-4.51,3.31,0,1.85,1,2.77,5.57,3.86,7.54,1.79,9,4.3,9,8,0,4.36-3.45,7.54-9.63,7.54-6.44,0-9.59-3.26-10.23-7.7Z" transform="translate(4.74)" fill="#fff"/><path d="M981.76,129.14h4.3v-7.33h4.29v7.33h5.48v3.5h-5.48V147.2c0,2.41.58,3.65,2.83,3.65a9.26,9.26,0,0,0,2.17-.21v3.23a11.42,11.42,0,0,1-3.72.46c-3.86,0-5.57-2-5.57-6.13V132.64h-4.3Z" transform="translate(4.74)" fill="#fff"/><path d="M1019,148.57a38.22,38.22,0,0,0,.34,5.42h-4.1a13.23,13.23,0,0,1-.41-3.25c-.87,1.65-2.85,3.84-7.67,3.84-5.86,0-8.36-3.82-8.36-7.6,0-5.54,4.36-8.08,11.74-8.08h4.24v-2.12c0-2.18-.7-4.86-5.35-4.86-4.15,0-4.85,2.06-5.3,4H1000c.33-3.43,2.44-7.38,9.59-7.36,6.07,0,9.43,2.49,9.43,8.14Zm-4.19-6.69h-4c-4.95,0-7.61,1.36-7.61,4.87,0,2.58,1.78,4.46,4.84,4.46,6,0,6.79-4,6.79-8.54Z" transform="translate(4.74)" fill="#fff"/><path d="M1026.4,135.55c0-2.14,0-4.39-.05-6.41h4.14c.07.75.18,2.58.17,3.83a7.67,7.67,0,0,1,7.22-4.41c3.52,0,5.94,1.78,6.88,4.45a8.46,8.46,0,0,1,7.92-4.45c4,0,7.83,2.38,7.83,9.1V154h-4.22V138.18c0-2.88-1-5.92-4.91-5.92-4.05,0-5.8,3.06-5.8,7.46V154h-4.21V138.32c0-3.2-.9-6-4.8-6s-5.91,3.23-5.91,8V154h-4.26Z" transform="translate(4.74)" fill="#fff"/><path d="M1072.13,150.92v12.83h-4.27V135.2c0-2,0-4.13,0-6.06H1072a38.88,38.88,0,0,1,.15,3.91c1.34-2.51,3.87-4.49,8.12-4.49,5.75,0,9.92,4.81,9.92,12.37,0,8.87-4.79,13.65-10.81,13.65C1075.35,154.58,1073.25,152.89,1072.13,150.92Zm13.62-9.82c0-5.27-2.4-8.87-6.64-8.87-5.15,0-7.18,3.25-7.18,9.29,0,5.87,1.67,9.43,6.85,9.43C1083.33,151,1085.75,147.22,1085.75,141.1Z" transform="translate(4.74)" fill="#fff"/><path d="M1114.24,148.57a37.8,37.8,0,0,0,.35,5.42h-4.11a13.89,13.89,0,0,1-.4-3.25c-.87,1.65-2.85,3.84-7.67,3.84-5.86,0-8.36-3.82-8.36-7.6,0-5.54,4.35-8.08,11.74-8.08H1110v-2.12c0-2.18-.7-4.86-5.34-4.86-4.15,0-4.86,2.06-5.31,4h-4.15c.33-3.43,2.45-7.38,9.59-7.36,6.07,0,9.43,2.49,9.43,8.14Zm-4.18-6.69h-4c-5,0-7.61,1.36-7.61,4.87,0,2.58,1.77,4.46,4.84,4.46,6,0,6.79-4,6.79-8.54Z" transform="translate(4.74)" fill="#fff"/><path d="M1121.66,135.89c0-3.47,0-5.42-.05-6.75h4.2c.07.7.14,2.65.14,5.07a8.77,8.77,0,0,1,8.37-5.65v4.27c-5.1.15-8.37,2.81-8.37,9.1V154h-4.29Z" transform="translate(4.74)" fill="#fff"/><path d="M1138.56,118h4.29v5.36h-4.29Zm0,11.12h4.29V154h-4.29Z" transform="translate(4.74)" fill="#fff"/><path d="M1168.39,148.57a38.22,38.22,0,0,0,.34,5.42h-4.1a13.23,13.23,0,0,1-.41-3.25c-.87,1.65-2.85,3.84-7.67,3.84-5.86,0-8.36-3.82-8.36-7.6,0-5.54,4.36-8.08,11.74-8.08h4.24v-2.12c0-2.18-.7-4.86-5.35-4.86-4.15,0-4.85,2.06-5.3,4h-4.15c.33-3.43,2.44-7.38,9.59-7.36,6.07,0,9.43,2.49,9.43,8.14Zm-4.19-6.69h-4c-5,0-7.6,1.36-7.6,4.87,0,2.58,1.77,4.46,4.83,4.46,6,0,6.79-4,6.79-8.54Z" transform="translate(4.74)" fill="#fff"/><path d="M810.84,176.82v29c0,2.33,0,4.62,0,7h-4.12a34.89,34.89,0,0,1-.22-3.53c-1.22,2.59-3.74,4.12-7.81,4.12-6.39,0-10.32-5.18-10.32-12.75s4.24-13.28,11.11-13.28c4.4,0,6.36,1.78,7,3.18V176.82Zm-18,23.67c0,6,2.85,9.25,6.75,9.25,5.81,0,7.09-4.29,7.09-9.74s-1.15-9-6.75-9C795.59,191,792.88,194.47,792.88,200.49Z" transform="translate(4.74)" fill="#fff"/><path d="M820.72,201.15c0,5,2.58,8.64,6.8,8.64,3.93,0,5.2-2,6-3.84h4.32c-1,3.18-3.64,7.43-10.45,7.43-7.81,0-11-6.35-11-12.75,0-7.39,3.72-13.28,11.27-13.28,8,0,10.64,6.43,10.64,11.73a19.68,19.68,0,0,1-.07,2.07Zm13.23-3c-.05-4.09-2.11-7.37-6.35-7.37s-6.29,3-6.73,7.37Z" transform="translate(4.74)" fill="#fff"/><path d="M860.25,209.72v12.83H856V194c0-2,0-4.13-.05-6.06h4.17a38.88,38.88,0,0,1,.15,3.91c1.35-2.51,3.87-4.5,8.12-4.5,5.75,0,9.92,4.82,9.92,12.38,0,8.87-4.79,13.65-10.8,13.65C863.47,213.38,861.38,211.69,860.25,209.72Zm13.63-9.82c0-5.27-2.4-8.87-6.64-8.87-5.15,0-7.19,3.25-7.19,9.29,0,5.87,1.67,9.43,6.86,9.43C871.45,209.75,873.88,206,873.88,199.9Z" transform="translate(4.74)" fill="#fff"/><path d="M886.78,201.15c0,5,2.57,8.64,6.79,8.64,3.93,0,5.2-2,6-3.84h4.32c-1,3.18-3.64,7.43-10.45,7.43-7.81,0-11-6.35-11-12.75,0-7.39,3.72-13.28,11.27-13.28,8,0,10.64,6.43,10.64,11.73,0,.76,0,1.39-.06,2.07Zm13.22-3c0-4.09-2.11-7.37-6.35-7.37s-6.29,3-6.73,7.37Z" transform="translate(4.74)" fill="#fff"/><path d="M929.74,205.19c-1.06,4.27-4,8.19-10.27,8.19-6.84,0-11.08-4.92-11.08-12.88,0-7,4-13.15,11.39-13.15,7.16,0,9.64,5.11,10,8.31h-4.26c-.61-2.53-2.19-4.72-5.78-4.72-4.4,0-6.89,3.77-6.89,9.41s2.41,9.46,6.73,9.46c3.1,0,4.91-1.66,5.93-4.62Zm-7.75,7.6-2,2.52c1.76.28,4.75,1.26,4.75,4.56,0,3.9-3.48,4.78-6,4.78a9.32,9.32,0,0,1-3.57-.58v-2.94a11.46,11.46,0,0,0,3.2.53c1.81,0,2.61-.57,2.61-1.7,0-1.81-2.48-2.2-5.06-2.23v-1.35L919,212.3Z" transform="translate(4.74)" fill="#fff"/><path d="M953.57,207.37a37.8,37.8,0,0,0,.35,5.42h-4.11a13.89,13.89,0,0,1-.4-3.25c-.87,1.65-2.85,3.84-7.68,3.84-5.85,0-8.35-3.82-8.35-7.6,0-5.54,4.35-8.08,11.74-8.08h4.23v-2.12c0-2.18-.7-4.86-5.35-4.86-4.15,0-4.85,2.06-5.3,4h-4.15c.33-3.43,2.45-7.38,9.59-7.37,6.07,0,9.43,2.5,9.43,8.15Zm-4.19-6.69h-4c-5,0-7.6,1.36-7.6,4.87,0,2.58,1.77,4.46,4.84,4.46,6,0,6.78-4,6.78-8.54Z" transform="translate(4.74)" fill="#fff"/><path d="M962.73,205.68c.71,2.72,2.72,4.32,6.09,4.32,3.65,0,5.08-1.58,5.08-3.84s-1.14-3.4-5.88-4.55c-7.1-1.73-8.58-3.9-8.58-7.27,0-3.52,2.58-7,9-7s9,3.72,9.36,7.18h-4.15c-.36-1.61-1.57-3.85-5.39-3.85-3.48,0-4.52,1.68-4.52,3.31,0,1.85,1,2.77,5.58,3.86,7.53,1.79,9,4.3,9,8,0,4.36-3.45,7.54-9.64,7.54-6.43,0-9.59-3.26-10.22-7.7Z" transform="translate(4.74)" fill="#fff"/><path d="M997.73,187.94c3.35,10.16,5.8,17.76,6.55,20.86h.05c.61-2.77,3.25-10.21,7-20.86h4.37l-9.14,24.85h-4.73l-8.67-24.85Z" transform="translate(4.74)" fill="#fff"/><path d="M1037.85,207.37a37.8,37.8,0,0,0,.35,5.42h-4.11a13.75,13.75,0,0,1-.41-3.25c-.86,1.65-2.85,3.84-7.67,3.84-5.85,0-8.35-3.82-8.35-7.6,0-5.54,4.35-8.08,11.73-8.08h4.24v-2.12c0-2.18-.7-4.86-5.35-4.86-4.15,0-4.85,2.06-5.3,4h-4.15c.33-3.43,2.45-7.38,9.59-7.37,6.07,0,9.43,2.5,9.43,8.15Zm-4.19-6.69h-4c-5,0-7.6,1.36-7.6,4.87,0,2.58,1.77,4.46,4.84,4.46,6,0,6.78-4,6.78-8.54Z" transform="translate(4.74)" fill="#fff"/><path d="M1045.27,194.69c0-3.47,0-5.42,0-6.75h4.2c.07.7.14,2.65.14,5.07a8.79,8.79,0,0,1,8.36-5.66v4.28c-5.09.15-8.36,2.81-8.36,9.1v12.06h-4.29Z" transform="translate(4.74)" fill="#fff"/><path d="M1062.17,176.82h4.29v5.36h-4.29Zm0,11.12h4.29v24.85h-4.29Z" transform="translate(4.74)" fill="#fff"/><path d="M1092,207.37a38.22,38.22,0,0,0,.34,5.42h-4.1a13.23,13.23,0,0,1-.41-3.25c-.87,1.65-2.85,3.84-7.67,3.84-5.86,0-8.36-3.82-8.36-7.6,0-5.54,4.36-8.08,11.74-8.08h4.24v-2.12c0-2.18-.7-4.86-5.35-4.86-4.15,0-4.85,2.06-5.3,4H1073c.32-3.43,2.44-7.38,9.58-7.37,6.08,0,9.44,2.5,9.44,8.15Zm-4.19-6.69h-4c-5,0-7.61,1.36-7.61,4.87,0,2.58,1.78,4.46,4.84,4.46,6,0,6.79-4,6.79-8.54Z" transform="translate(4.74)" fill="#fff"/><path d="M1120,176.82v29c0,2.33,0,4.62,0,7H1116a34.89,34.89,0,0,1-.22-3.53c-1.23,2.59-3.74,4.12-7.82,4.12-6.38,0-10.31-5.18-10.31-12.75s4.24-13.28,11.11-13.28c4.39,0,6.35,1.78,7,3.18V176.82Zm-18,23.67c0,6,2.85,9.25,6.75,9.25,5.81,0,7.09-4.29,7.09-9.74s-1.16-9-6.75-9C1104.78,191,1102.07,194.47,1102.07,200.49Z" transform="translate(4.74)" fill="#fff"/><path d="M1145.55,207.37a37.8,37.8,0,0,0,.35,5.42h-4.11a13.89,13.89,0,0,1-.4-3.25c-.87,1.65-2.85,3.84-7.67,3.84-5.86,0-8.36-3.82-8.36-7.6,0-5.54,4.35-8.08,11.74-8.08h4.23v-2.12c0-2.18-.7-4.86-5.34-4.86-4.15,0-4.86,2.06-5.31,4h-4.15c.33-3.43,2.45-7.38,9.59-7.37,6.07,0,9.43,2.5,9.43,8.15Zm-4.18-6.69h-4c-5,0-7.61,1.36-7.61,4.87,0,2.58,1.77,4.46,4.84,4.46,6,0,6.79-4,6.79-8.54Z" transform="translate(4.74)" fill="#fff"/><path d="M1154.71,205.68c.71,2.72,2.72,4.32,6.09,4.32,3.65,0,5.08-1.58,5.08-3.84s-1.14-3.4-5.88-4.55c-7.1-1.73-8.58-3.9-8.58-7.27,0-3.52,2.58-7,9-7s9,3.72,9.35,7.18h-4.15c-.35-1.61-1.57-3.85-5.39-3.85-3.48,0-4.51,1.68-4.51,3.31,0,1.85,1,2.77,5.57,3.86,7.53,1.79,9,4.3,9,8,0,4.36-3.45,7.54-9.64,7.54-6.43,0-9.59-3.26-10.22-7.7Z" transform="translate(4.74)" fill="#fff"/><path d="M644.42,268.52v12.83h-4.28V252.8c0-2,0-4.13,0-6.06h4.17c.09.83.15,2.34.15,3.91,1.34-2.51,3.86-4.49,8.12-4.49,5.74,0,9.92,4.81,9.92,12.37,0,8.87-4.79,13.65-10.81,13.65C647.63,272.18,645.54,270.49,644.42,268.52ZM658,258.7c0-5.27-2.4-8.87-6.64-8.87-5.15,0-7.18,3.25-7.18,9.29,0,5.87,1.66,9.43,6.85,9.43C655.61,268.55,658,264.82,658,258.7Z" transform="translate(4.74)" fill="#fff"/><path d="M686.53,266.17a39.82,39.82,0,0,0,.34,5.42h-4.1a13.75,13.75,0,0,1-.41-3.25c-.86,1.65-2.85,3.84-7.67,3.84-5.85,0-8.36-3.82-8.36-7.6,0-5.54,4.36-8.08,11.74-8.08h4.24v-2.12c0-2.18-.7-4.86-5.35-4.86-4.15,0-4.85,2.06-5.3,4h-4.15c.33-3.43,2.45-7.38,9.59-7.36,6.07,0,9.43,2.49,9.43,8.14Zm-4.19-6.69h-4c-5,0-7.6,1.36-7.6,4.87,0,2.58,1.77,4.46,4.83,4.46,6,0,6.79-4,6.79-8.54Z" transform="translate(4.74)" fill="#fff"/><path d="M694,253.49c0-3.47,0-5.42-.05-6.75h4.2c.07.7.14,2.65.14,5.07a8.77,8.77,0,0,1,8.36-5.65v4.27c-5.09.15-8.36,2.82-8.36,9.1v12.06H694Z" transform="translate(4.74)" fill="#fff"/><path d="M728.87,266.17a38.22,38.22,0,0,0,.34,5.42h-4.1a13.23,13.23,0,0,1-.41-3.25c-.87,1.65-2.85,3.84-7.67,3.84-5.86,0-8.36-3.82-8.36-7.6,0-5.54,4.36-8.08,11.74-8.08h4.24v-2.12c0-2.18-.7-4.86-5.35-4.86-4.15,0-4.85,2.06-5.3,4h-4.15c.32-3.43,2.44-7.38,9.58-7.36,6.08,0,9.44,2.49,9.44,8.14Zm-4.19-6.69h-4c-4.95,0-7.61,1.36-7.61,4.87,0,2.58,1.77,4.46,4.84,4.46,6,0,6.79-4,6.79-8.54Z" transform="translate(4.74)" fill="#fff"/><path d="M751.25,260c0,5.05,2.57,8.64,6.79,8.64,3.93,0,5.2-2,6-3.84h4.32c-1,3.18-3.65,7.43-10.45,7.43-7.82,0-11-6.35-11-12.75,0-7.39,3.72-13.27,11.27-13.27,8,0,10.64,6.42,10.64,11.72,0,.76,0,1.39-.06,2.07Zm13.22-3c-.05-4.09-2.1-7.37-6.35-7.37s-6.29,3-6.73,7.37Z" transform="translate(4.74)" fill="#fff"/><path d="M776.36,246.74c3.34,10.17,5.79,17.76,6.55,20.86H783c.6-2.77,3.25-10.21,7-20.86h4.37l-9.14,24.85h-4.73l-8.66-24.85Z" transform="translate(4.74)" fill="#fff"/><path d="M800.93,260c0,5.05,2.58,8.64,6.79,8.64,3.93,0,5.21-2,6-3.84H818c-1,3.18-3.64,7.43-10.45,7.43-7.81,0-11-6.35-11-12.75,0-7.39,3.73-13.27,11.28-13.27,8,0,10.64,6.42,10.64,11.72a19.68,19.68,0,0,1-.07,2.07Zm13.23-3c0-4.09-2.11-7.37-6.36-7.37s-6.29,3-6.72,7.37Z" transform="translate(4.74)" fill="#fff"/><path d="M824.06,253c0-2.15,0-4.33,0-6.26h4.17c.11.74.18,3.35.16,4.09,1-2.14,3-4.67,7.83-4.67,4.65,0,8.3,2.84,8.3,9.45v16h-4.29V256.16c0-3.76-1.47-6.28-5.26-6.28-4.69,0-6.58,3.56-6.58,8.56v13.15h-4.28Z" transform="translate(4.74)" fill="#fff"/><path d="M848.29,246.74h4.3v-7.33h4.28v7.33h5.49v3.5h-5.49V264.8c0,2.41.59,3.65,2.84,3.65a9.26,9.26,0,0,0,2.17-.21v3.23a11.42,11.42,0,0,1-3.72.46c-3.86,0-5.57-2-5.57-6.13V250.24h-4.3Z" transform="translate(4.74)" fill="#fff"/><path d="M888.12,259.12c0,7.15-4.1,13.06-11.7,13.06-7.12,0-11.42-5.51-11.42-13s4.21-13,11.7-13C883.6,246.16,888.12,251.32,888.12,259.12Zm-18.7.05c0,5.45,2.71,9.42,7.18,9.42s7.1-3.77,7.1-9.41-2.54-9.44-7.2-9.44S869.42,253.5,869.42,259.17Z" transform="translate(4.74)" fill="#fff"/><path d="M896.19,264.48c.71,2.72,2.72,4.31,6.09,4.31,3.65,0,5.08-1.57,5.08-3.83s-1.14-3.4-5.88-4.55c-7.1-1.73-8.58-3.9-8.58-7.27s2.58-7,9-7,9,3.71,9.35,7.17h-4.15c-.35-1.61-1.57-3.84-5.39-3.84-3.48,0-4.51,1.67-4.51,3.3,0,1.85,1,2.77,5.57,3.86,7.53,1.79,9,4.3,9,8,0,4.36-3.45,7.54-9.64,7.54-6.43,0-9.59-3.26-10.22-7.7Z" transform="translate(4.74)" fill="#fff"/><path d="M932.25,260c0,5.05,2.57,8.64,6.79,8.64,3.93,0,5.2-2,6-3.84h4.32c-1,3.18-3.64,7.43-10.45,7.43-7.81,0-11-6.35-11-12.75,0-7.39,3.72-13.27,11.28-13.27,8,0,10.64,6.42,10.64,11.72a19.68,19.68,0,0,1-.07,2.07Zm13.22-3c-.05-4.09-2.1-7.37-6.35-7.37s-6.29,3-6.72,7.37Z" transform="translate(4.74)" fill="#fff"/><path d="M970.08,260c0,5.05,2.57,8.64,6.79,8.64,3.93,0,5.2-2,6-3.84h4.32c-1,3.18-3.65,7.43-10.45,7.43-7.82,0-11-6.35-11-12.75,0-7.39,3.72-13.27,11.27-13.27,8,0,10.64,6.42,10.64,11.72,0,.76,0,1.39-.06,2.07Zm13.22-3c0-4.09-2.1-7.37-6.35-7.37s-6.29,3-6.73,7.37Z" transform="translate(4.74)" fill="#fff"/><path d="M993.18,253.15c0-2.14,0-4.39,0-6.41h4.14c.07.75.18,2.58.17,3.83a7.67,7.67,0,0,1,7.23-4.41c3.51,0,5.93,1.78,6.87,4.45a8.46,8.46,0,0,1,7.92-4.45c4,0,7.83,2.38,7.83,9.1v16.33h-4.22V255.78c0-2.88-1-5.92-4.91-5.92-4,0-5.8,3.06-5.8,7.46v14.27h-4.21V255.92c0-3.2-.9-6-4.8-6s-5.91,3.22-5.91,8v13.75h-4.26Z" transform="translate(4.74)" fill="#fff"/><path d="M1038.91,268.52v12.83h-4.27V252.8c0-2,0-4.13-.05-6.06h4.17a39,39,0,0,1,.15,3.91c1.34-2.51,3.87-4.49,8.12-4.49,5.75,0,9.92,4.81,9.92,12.37,0,8.87-4.79,13.65-10.81,13.65C1042.13,272.18,1040,270.49,1038.91,268.52Zm13.62-9.82c0-5.27-2.4-8.87-6.64-8.87-5.15,0-7.18,3.25-7.18,9.29,0,5.87,1.67,9.43,6.85,9.43C1050.11,268.55,1052.53,264.82,1052.53,258.7Z" transform="translate(4.74)" fill="#fff"/><path d="M1062.57,253.49c0-3.47,0-5.42,0-6.75h4.2c.07.7.14,2.65.14,5.07a8.77,8.77,0,0,1,8.36-5.65v4.27c-5.09.15-8.36,2.82-8.36,9.1v12.06h-4.29Z" transform="translate(4.74)" fill="#fff"/><path d="M1082,260c0,5.05,2.58,8.64,6.79,8.64,3.93,0,5.21-2,6-3.84h4.32c-1,3.18-3.64,7.43-10.45,7.43-7.81,0-11-6.35-11-12.75,0-7.39,3.72-13.27,11.28-13.27,8,0,10.64,6.42,10.64,11.72a19.68,19.68,0,0,1-.07,2.07Zm13.22-3c0-4.09-2.1-7.37-6.35-7.37s-6.29,3-6.72,7.37Z" transform="translate(4.74)" fill="#fff"/><path d="M1107.52,264.48c.71,2.72,2.73,4.31,6.09,4.31,3.65,0,5.09-1.57,5.09-3.83s-1.15-3.4-5.89-4.55c-7.1-1.73-8.58-3.9-8.58-7.27s2.58-7,9-7,9,3.71,9.35,7.17h-4.14c-.36-1.61-1.58-3.84-5.39-3.84-3.49,0-4.52,1.67-4.52,3.3,0,1.85,1,2.77,5.58,3.86,7.53,1.79,9,4.3,9,8,0,4.36-3.45,7.54-9.63,7.54-6.44,0-9.59-3.26-10.23-7.7Z" transform="translate(4.74)" fill="#fff"/><path d="M1147.32,266.17a38.22,38.22,0,0,0,.34,5.42h-4.1a13.23,13.23,0,0,1-.41-3.25c-.87,1.65-2.85,3.84-7.67,3.84-5.86,0-8.36-3.82-8.36-7.6,0-5.54,4.36-8.08,11.74-8.08h4.24v-2.12c0-2.18-.7-4.86-5.35-4.86-4.15,0-4.85,2.06-5.3,4h-4.15c.33-3.43,2.44-7.38,9.59-7.36,6.07,0,9.43,2.49,9.43,8.14Zm-4.19-6.69h-4c-4.95,0-7.6,1.36-7.6,4.87,0,2.58,1.77,4.46,4.83,4.46,6,0,6.79-4,6.79-8.54Z" transform="translate(4.74)" fill="#fff"/><path d="M1156.47,264.48c.71,2.72,2.73,4.31,6.09,4.31,3.65,0,5.09-1.57,5.09-3.83s-1.15-3.4-5.89-4.55c-7.1-1.73-8.58-3.9-8.58-7.27s2.58-7,9-7,9,3.71,9.36,7.17h-4.15c-.36-1.61-1.58-3.84-5.39-3.84-3.49,0-4.52,1.67-4.52,3.3,0,1.85,1,2.77,5.58,3.86,7.53,1.79,9,4.3,9,8,0,4.36-3.46,7.54-9.64,7.54-6.44,0-9.59-3.26-10.22-7.7Z" transform="translate(4.74)" fill="#fff"/><path d="M1177.3,271.59v-7.24h4.49v7.24Z" transform="translate(4.74)" fill="#fff"/></g><g id="Layer_6" data-name="Layer 6"><path d="M1197.16,6V398.2H1.26V6h1195.9m6-6H-4.74V404.2h1207.9V0Z" transform="translate(4.74)" fill="#fff"/></g></svg>