<svg id="Layer_1" data-name="Layer 1" xmlns="http://www.w3.org/2000/svg" xmlns:xlink="http://www.w3.org/1999/xlink" viewBox="0 0 1080 481.68"><defs><linearGradient id="linear-gradient" x1="-58.81" y1="741.79" x2="-58.52" y2="741.79" gradientTransform="matrix(0, -1172.72, -1203.75, 0, 893815.26, -68326.11)" gradientUnits="userSpaceOnUse"><stop offset="0" stop-color="#b44b17"/><stop offset="0.52" stop-color="#ef6521"/><stop offset="1" stop-color="#b44b17"/></linearGradient><linearGradient id="linear-gradient-2" x1="-58.81" y1="740.45" x2="-58.52" y2="740.45" gradientTransform="matrix(0, -1172.72, -1895.19, 0, 1403586.57, -68326.11)" gradientUnits="userSpaceOnUse"><stop offset="0" stop-color="#ef6521"/><stop offset="0.52" stop-color="#ef6521"/><stop offset="1" stop-color="#b44b17"/></linearGradient><linearGradient id="linear-gradient-3" x1="-58.81" y1="741.19" x2="-58.52" y2="741.19" gradientTransform="matrix(0, -1172.72, -1203.75, 0, 892780.1, -68326.11)" xlink:href="#linear-gradient"/></defs><title>logo-white</title><path id="Layer" d="M178.41,706.22v7.06h-38.5v23.2H169v7.1h-29.1v34.18H131V706.22Zm95.43,0-17.58,71.54H244.45l-9.08-40.6q-1.45-6.33-4.7-23.37h-1.76q-2.28,14-4.51,23.16l-9.62,40.81H203l-16.8-71.54h9.21l8.59,40c1.31,5.91,2.69,13.72,4.2,23.46H210q3.94-20.13,4.61-23.07l9.36-40.39h12.31l9.15,40.95q1.63,7.55,4.51,22.51h1.76q.69-3.51,2.28-12.32,1.17-6.21,2.1-10.49l9-40.65Zm91.26,0v7.06H326.47v22.93H355.7v7.07H326.47v27.38h39.32v7.1H317.6V706.22ZM426.94,722l-8.9,2.49c-2.57-8.4-7.89-12.62-16-12.62-5,0-8.86,1.19-11.59,3.56a10.06,10.06,0,0,0-3.57,8c0,4,1.31,7,3.91,9,2.32,1.78,6.24,3.36,11.78,4.69l3.26.89q13.81,3.3,18.71,8.79,3.84,4.4,3.85,11.94,0,10-7.58,15.45-6.92,4.94-18.42,4.93c-7.49,0-13.63-1.7-18.39-5.14a24.13,24.13,0,0,1-8.87-12.8l8.84-2.91a17.89,17.89,0,0,0,7.36,10.93,19.41,19.41,0,0,0,10.87,3q9,0,13.5-4a10.87,10.87,0,0,0,3.6-8.56c0-4.1-1.25-7.12-3.76-9.11s-6.79-3.78-13.15-5.35l-3-.86q-12.78-3.26-17.51-8.58-3.92-4.37-3.92-12A16.68,16.68,0,0,1,384.9,710q6.48-5,16.91-5,19.32,0,25.13,17Zm66.6-15.74v7.18H469.89v64.36h-9V713.4H437.43v-7.18Zm39.32,0,24.28,71.54h-9.31L540.5,755H513.62L506,777.76h-8.71l24.25-71.54Zm5.7,42.2L533,731c-1.47-4.45-3.23-10.57-5.32-18.32h-1.57c-1.69,6.71-3.42,12.8-5.2,18.23l-5.55,17.47Zm105.23-42.2v71.54H635.3v-42l.19-22.6h-1.76q-3.78,13.44-6.64,22L612.9,777.76H601.5l-13.91-42.53c-1-3.06-2.26-7-3.7-11.7-1.6-5.35-2.63-8.82-3.13-10.42H579c0,1-.06,2.13-.06,3.29l.25,19.45v41.91h-8V706.22h14.95l13.5,42.14c.66,2.11,1.88,5.94,3.66,11.52q2,6.48,3.23,10.31h1.75q.57-1.65,7.05-21.65l13.73-42.32Zm21.49,0h25.09q26.08,0,26.1,19.86,0,10.2-7.8,15.63-7,4.77-19,4.78H674.08v31.27h-8.8Zm8.8,6.77v26.9h15.14c12,0,18.07-4.57,18.07-13.72q0-13.18-17.48-13.18Zm84.15-6.77,24.25,71.51h-9.31L765.87,755H739l-7.58,22.69h-8.71l24.25-71.51Zm5.7,42.2L758.32,731c-1.44-4.45-3.22-10.57-5.32-18.32h-1.57c-1.69,6.71-3.41,12.8-5.2,18.2l-5.54,17.5Zm32.65-42.2H822q25.92,0,25.91,18.71A16.77,16.77,0,0,1,843.32,737a21.53,21.53,0,0,1-11.44,6l18,34.78h-9.84l-16.6-33.38h-18.2v33.38h-8.71Zm8.71,6.8v24.77h15.53q18,0,17.95-12.75c0-4.27-1.5-7.39-4.48-9.32q-4.18-2.7-12.81-2.7Zm68.89-6.8v71.54h-8.9V706.22Zm49.68,0,24.25,71.54H938.8L931.51,755H904.63L897,777.76H888.3l24.28-71.54Zm5.67,42.23L924,731.07q-2.22-6.68-5.36-18.35h-1.54c-1.72,6.74-3.44,12.83-5.2,18.23l-5.54,17.5Z" transform="translate(0 -297.42)" fill="#fff" fill-rule="evenodd"/><path id="Layer-2" data-name="Layer" d="M443.42,342.91l86.34,186-387.69.44-87-187.43Z" transform="translate(0 -297.42)" fill="#ef6521"/><path id="Layer-3" data-name="Layer" d="M112,484.13,55.07,363.41l389.88-3,58.24,122.71L324.12,510.56l-10.18-27Z" transform="translate(0 -297.42)" fill="#ef6521"/><path id="Layer-4" data-name="Layer" d="M756.13,297.42H541.79l161.08,348.3h216Z" transform="translate(0 -297.42)" fill="#ef6521"/><path id="Layer-5" data-name="Layer" d="M813.15,416.77,918.88,645.69,852,615.58,702.87,645.69Z" transform="translate(0 -297.42)" fill="#ef6521"/><path id="Layer-6" data-name="Layer" d="M702.87,645.72h216L1080,297.42H865.65Z" transform="translate(0 -297.42)" fill="url(#linear-gradient)"/><path id="Layer-7" data-name="Layer" d="M377.72,645.72h216L518.35,484.43H519l-86.31-186h-1.28l-.47-1H216.6l.22.5L0,297.42,87,484.84l216.25-.21Z" transform="translate(0 -297.42)" fill="url(#linear-gradient-2)"/><path id="Layer-8" data-name="Layer" d="M488.87,416.77l105.7,228.92-66.85-30.11L378.6,645.69Z" transform="translate(0 -297.42)" fill="#ef6521"/><path id="Layer-9" data-name="Layer" d="M378.6,645.72h216l161.12-348.3H541.35Z" transform="translate(0 -297.42)" fill="url(#linear-gradient-3)"/></svg>